PathFileType	4	(X/Y/Z)	SUBJ94_4_walk_RCNL2025.trc
DataRate	CameraRate	NumFrames	NumMarkers	Units	OrigDataRate	OrigDataStartFrame	OrigNumFrames
100	100	13	25	mm	100	75	297
Frame#	Time	R_Shoulder			L_Shoulder			C7			J_Notch			R_Elbow			L_Elbow			R_Wrist			L_Wrist			R_Asis			L_Asis			Sacral			Thoracic			Sternum			R_Thigh_Lateral			R_Knee_Lateral			R_Shank_Lateral			R_Ankle_Lateral			R_Heel			R_Toe			L_Thigh_Lateral			L_Knee_Lateral			L_Shank_Lateral			L_Ankle_Lateral			L_Heel			L_Toe		
		X1	Y1	Z1	X2	Y2	Z2	X3	Y3	Z3	X4	Y4	Z4	X5	Y5	Z5	X6	Y6	Z6	X7	Y7	Z7	X8	Y8	Z8	X9	Y9	Z9	X10	Y10	Z10	X11	Y11	Z11	X12	Y12	Z12	X13	Y13	Z13	X14	Y14	Z14	X15	Y15	Z15	X16	Y16	Z16	X17	Y17	Z17	X18	Y18	Z18	X19	Y19	Z19	X20	Y20	Z20	X21	Y21	Z21	X22	Y22	Z22	X23	Y23	Z23	X24	Y24	Z24	X25	Y25	Z25
75	0.74000000	-590.329590	1238.037720	-182.271606	-577.395508	1257.114990	-563.873718	-652.643433	1327.604980	-373.579102	-529.323425	1244.968018	-379.901245	-659.825317	957.912292	-114.867012	-573.688232	973.625244	-639.810547	-581.882111	746.664154	-97.659760	-401.315399	817.486786	-643.323517	-507.453979	863.760803	-272.331177	-511.348633	849.383484	-499.986847	-700.936829	913.598511	-393.183899	-704.443237	1122.392700	-388.471252	-484.034271	1052.872803	-372.720337	-487.946503	526.341614	-199.892502	-461.624908	439.348785	-255.521881	-430.373779	257.865723	-213.695358	-400.384033	55.283695	-288.958984	-443.432709	47.966816	-338.315857	-267.575256	52.927086	-319.965118	-649.387146	517.384827	-583.280212	-682.960693	422.985901	-525.736389	-785.547485	267.606750	-576.183533	-912.650513	112.495110	-470.308105	-950.000977	127.273117	-420.805054	-818.564331	41.207294	-438.245605
76	0.75000000	-577.424194	1238.894287	-180.860535	-565.296082	1258.121216	-562.530945	-640.451782	1328.223022	-372.060669	-516.916687	1246.066284	-378.457123	-645.877991	958.547180	-113.438805	-563.623718	974.456970	-638.272217	-568.488678	747.148102	-95.652370	-391.097702	818.344543	-641.502777	-494.756042	865.158264	-270.980194	-498.686707	849.637268	-498.304901	-688.176147	914.398926	-392.925629	-691.803467	1122.950562	-387.070374	-471.072021	1054.112427	-371.340271	-475.180023	528.274597	-198.882904	-451.530334	439.986023	-254.684601	-423.386993	257.638733	-213.423203	-399.432495	54.821400	-289.034393	-442.864777	48.580135	-338.146637	-266.528503	49.046555	-320.692749	-632.116638	516.330566	-582.920410	-665.225830	422.055206	-525.916870	-773.330200	271.035431	-576.210388	-904.665405	120.118233	-470.186646	-940.217957	136.721664	-420.255798	-816.291138	42.182678	-438.485565
77	0.76000000	-564.373840	1240.010620	-179.528168	-553.301880	1259.297607	-561.265991	-628.236450	1329.040527	-370.580750	-504.512085	1247.369263	-377.090302	-631.578674	959.407898	-112.020378	-553.888245	975.420349	-636.671814	-554.613098	747.894257	-93.789742	-381.324249	819.206512	-639.733185	-482.222046	866.747131	-269.574707	-486.124268	850.074707	-496.556488	-675.526367	915.382874	-392.693054	-679.180054	1123.721191	-385.655273	-458.165649	1055.537476	-370.016266	-463.023712	530.202637	-197.823135	-441.971069	440.706635	-253.810730	-416.987823	257.479950	-213.158646	-398.897095	54.490501	-289.124695	-442.666382	49.231564	-337.999878	-265.871277	45.665981	-321.329346	-614.087341	515.292236	-582.527344	-646.563293	421.203613	-526.046448	-760.152161	274.931915	-576.133972	-895.414917	128.300369	-469.824554	-928.978760	146.600616	-419.386871	-813.029602	43.772808	-438.897034
78	0.77000000	-551.202454	1241.360840	-178.287628	-541.425720	1260.615967	-560.089844	-616.009766	1330.038086	-369.151459	-492.124298	1248.845703	-375.817871	-616.959351	960.475647	-110.612617	-544.459351	976.492737	-635.020081	-540.252991	748.895416	-92.085087	-371.979462	820.047943	-638.025879	-469.859375	868.471313	-268.134705	-473.689697	850.690369	-494.771179	-663.009216	916.527039	-392.445343	-666.591614	1124.685425	-384.230530	-445.340912	1057.110718	-368.770813	-451.607666	532.035034	-196.728668	-433.005310	441.457977	-252.910889	-411.142639	257.376038	-212.896530	-398.630341	54.285240	-289.215393	-442.690308	49.883099	-337.859344	-265.476044	42.862209	-321.870148	-595.387085	514.310120	-582.096313	-627.025940	420.470367	-526.107727	-745.955627	279.257355	-575.948425	-884.817322	136.909622	-469.242401	-916.284485	156.734924	-418.242615	-808.496582	46.041237	-439.470032
79	0.78000000	-537.935547	1242.914307	-177.149796	-529.678833	1262.044800	-559.011353	-603.784119	1331.192749	-367.783417	-479.767487	1250.461670	-374.654785	-602.054810	961.727600	-109.216431	-535.311829	977.649475	-633.328491	-525.410385	750.140625	-90.549858	-363.045029	820.842773	-636.390594	-457.671051	870.273193	-266.681335	-461.406982	851.476685	-492.979462	-650.642334	917.806946	-392.143311	-654.055725	1125.820801	-382.800140	-432.620575	1058.793335	-367.625488	-441.026001	533.698853	-195.616180	-424.674408	442.192749	-251.996948	-405.824371	257.313232	-212.634384	-398.519562	54.192009	-289.299103	-442.826050	50.502747	-337.717407	-265.247467	40.660275	-322.316833	-576.117126	513.431396	-581.620422	-606.680115	419.897797	-526.083618	-730.689026	283.947235	-575.653198	-872.805176	145.773315	-468.475189	-902.166077	166.918488	-416.888611	-802.399658	49.006542	-440.171082
80	0.79000000	-524.599548	1244.637573	-176.122940	-518.070068	1263.551147	-558.037170	-591.571350	1332.479736	-366.485626	-467.454956	1252.181641	-373.613586	-586.901672	963.137695	-107.832863	-526.418091	978.864624	-631.609131	-510.091995	751.615662	-89.193531	-354.500717	821.564301	-634.835907	-445.656128	872.096375	-265.235748	-449.294678	852.423706	-491.210876	-638.438965	919.197510	-391.751587	-641.588501	1127.102295	-381.367737	-420.023773	1060.546387	-366.600098	-431.332886	535.141785	-194.502899	-417.000946	442.871338	-251.081543	-401.011200	257.277893	-212.372070	-398.483826	54.191566	-289.374298	-442.996277	51.066006	-337.574005	-265.117889	39.039463	-322.675507	-556.387512	512.707581	-581.091309	-585.603333	419.529663	-525.957947	-714.310547	288.911316	-575.252625	-859.327515	154.683456	-467.568176	-886.679138	176.921997	-415.404907	-794.454834	52.633987	-440.943451
81	0.80000000	-511.221069	1246.494751	-175.212601	-506.605927	1265.100830	-557.171692	-579.382690	1333.872192	-365.265076	-455.198883	1253.969604	-372.703827	-571.537415	964.677307	-106.463257	-517.749512	980.112000	-629.874146	-494.309464	753.303558	-88.023472	-346.324768	822.186127	-633.368835	-433.810059	873.888428	-263.817535	-437.365448	853.519348	-489.492523	-626.407532	920.673706	-391.241028	-629.204102	1128.502441	-379.936523	-407.565765	1062.332153	-365.711517	-422.541229	536.332520	-193.405869	-409.988251	443.463043	-250.177597	-396.684265	257.257355	-212.111343	-398.469055	54.261623	-289.444000	-443.151428	51.556667	-337.434570	-265.042145	37.942924	-322.955170	-536.310974	512.192505	-580.499390	-563.881958	419.408691	-525.716492	-696.791321	294.035065	-574.754883	-844.351624	163.405579	-466.571838	-869.897034	186.502747	-413.877930	-784.406250	56.832405	-441.711243
82	0.81000000	-497.826538	1248.448608	-174.421494	-495.290070	1266.660156	-556.416626	-567.228394	1335.342041	-364.126831	-443.010132	1255.789795	-371.931763	-555.999146	966.316345	-105.109352	-509.277130	981.365723	-628.135437	-478.079056	755.185211	-87.044914	-338.494614	822.683014	-631.995026	-422.125610	875.603210	-262.443726	-425.625610	854.749023	-487.847656	-614.551758	922.210815	-390.590118	-616.914795	1129.992676	-378.509521	-395.257629	1064.114868	-364.972870	-414.623932	537.260071	-192.341324	-403.620636	443.946655	-249.297882	-392.824982	257.240448	-211.855301	-398.442627	54.379368	-289.514191	-443.264160	51.966827	-337.307892	-264.992004	37.289284	-323.166382	-515.997742	511.938629	-579.835022	-541.607971	419.573883	-525.347412	-678.117249	299.182678	-574.170654	-827.864258	171.690292	-465.536224	-851.903687	195.415131	-412.391571	-772.043640	61.457226	-442.386475
83	0.82000000	-484.441345	1250.461670	-173.749588	-484.123383	1268.196289	-555.770996	-555.117554	1336.860474	-363.074005	-430.898041	1257.607544	-371.300354	-540.322632	968.023743	-103.773392	-500.972595	982.600769	-626.404297	-461.421600	757.239868	-86.260971	-330.987305	823.031525	-630.718628	-410.593201	877.202515	-261.127655	-414.075470	856.095764	-486.294464	-602.870972	923.784851	-389.786255	-604.730530	1131.543823	-377.089783	-383.106415	1065.861816	-364.392853	-407.517914	537.930847	-191.324020	-397.864868	444.310394	-248.454346	-389.411835	257.217987	-211.607910	-398.387756	54.523590	-289.592224	-443.323151	52.296215	-337.203949	-264.951355	36.984489	-323.320221	-495.550140	511.993652	-579.089355	-518.877319	420.057831	-524.842102	-658.290405	304.201813	-573.511292	-809.872620	179.286499	-464.505859	-832.785706	203.421509	-411.018555	-757.217590	66.319443	-442.879120
84	0.83000000	-471.089478	1252.497437	-173.194290	-473.103760	1269.678101	-555.231567	-543.058044	1338.399048	-362.107758	-418.870239	1259.390137	-370.809052	-524.541504	969.768555	-102.458176	-492.808929	983.793701	-624.691223	-444.361984	759.445740	-85.672749	-323.779816	823.210815	-629.542664	-399.201874	878.656860	-259.878357	-402.709412	857.540161	-484.845367	-591.360107	925.372314	-388.826080	-592.658875	1133.126221	-375.680359	-371.115265	1067.543335	-363.974976	-401.129822	538.365723	-190.366714	-392.672333	444.551025	-247.657639	-386.418060	257.183289	-211.373459	-398.298553	54.676258	-289.685425	-443.328003	52.550987	-337.132050	-264.911835	36.932648	-323.427704	-475.058746	512.397095	-578.255249	-495.787567	420.884033	-524.195374	-637.329590	308.930450	-572.786987	-790.404053	185.955154	-463.515320	-812.625854	210.302200	-409.813202	-739.848450	71.199623	-443.108154
85	0.84000000	-457.792938	1254.520386	-172.750656	-462.226349	1271.076782	-554.792603	-531.056274	1339.929443	-361.227600	-406.932648	1261.106812	-370.454041	-508.686493	971.520325	-101.167053	-484.761047	984.922791	-623.005432	-426.928680	761.780640	-85.279491	-316.849396	823.203094	-628.468872	-387.939819	879.945801	-258.700348	-391.516754	859.060120	-483.506531	-580.010742	926.950256	-387.715363	-580.705017	1134.710693	-374.284668	-359.283813	1069.133789	-363.717499	-395.343750	538.595337	-189.479599	-387.982208	444.672638	-246.916550	-383.809845	257.131927	-211.156250	-398.175659	54.823441	-289.800018	-443.284546	52.742126	-337.099304	-264.869751	37.044785	-323.499268	-454.600037	513.177063	-577.328247	-472.436859	422.064880	-523.405823	-615.269836	313.205048	-572.005493	-769.504761	191.482300	-462.586365	-791.496948	215.864120	-408.806488	-719.930115	75.865150	-443.012360
86	0.85000000	-444.571198	1256.497314	-172.411774	-451.483704	1272.366333	-554.446533	-519.117065	1341.424194	-360.431427	-395.089386	1262.729736	-370.228302	-492.785034	973.250000	-99.903931	-476.806458	985.968445	-621.354980	-409.153152	764.222290	-85.078762	-310.173599	822.994141	-627.498047	-376.794983	881.057007	-257.593811	-380.482330	860.631042	-482.278046	-568.811462	928.496033	-386.468231	-568.871826	1136.268921	-372.906372	-347.608673	1070.610840	-363.613129	-390.029694	538.656433	-188.669922	-383.724854	444.685089	-246.237518	-381.545807	257.061951	-210.960159	-398.023041	54.955666	-289.940338	-443.201447	52.883778	-337.109650	-264.823700	37.244976	-323.544342	-434.235718	514.347717	-576.307007	-448.923370	423.600128	-522.475952	-592.162598	316.870544	-571.170776	-747.237244	195.690094	-461.726715	-769.457825	219.947617	-408.003662	-697.526611	80.088669	-442.558929
87	0.86000000	-431.440796	1258.397339	-172.169113	-440.866150	1273.523560	-554.184082	-507.243744	1342.857056	-359.715942	-383.342712	1264.233521	-370.122223	-476.860870	974.930115	-98.673141	-468.925446	986.913330	-619.746582	-391.069153	766.748718	-85.066650	-303.730362	822.573395	-626.630157	-365.755524	881.985413	-256.554840	-369.587555	862.226074	-481.154419	-557.748596	929.987061	-385.105988	-557.159851	1137.774048	-371.549530	-336.083771	1071.955688	-363.649414	-385.052582	538.587219	-187.941711	-379.825775	444.602203	-245.624466	-379.577637	256.973480	-210.788467	-397.845978	55.067741	-290.108368	-443.087708	52.991650	-337.163788	-264.773010	37.473793	-323.571350	-414.013611	515.907776	-575.193787	-425.345184	425.476166	-521.412109	-568.075317	319.790497	-570.282898	-723.676147	198.445068	-460.930725	-746.550598	222.431396	-407.385315	-672.763367	83.665527	-441.749084
